<?xml version="1.0" encoding="UTF-8" standalone="no"?>
<svg width="28" height="21" viewBox="0 0 28 21" version="1.1" xmlns="http://www.w3.org/2000/svg">
 <g id="Page-1" fill="none" fill-rule="evenodd">
  <g id="variables_off" fill="#62666b">
   <path d="M3.60493827,21 C2.44443864,19.5612576 1.55350105,18.0454625 0.932098765,16.4525692 C0.310696481,14.8596758 0,13.2055422 0,11.4901186 C0,8.76283221 0.942377407,6.27273854 2.82716049,4.01976285 C3.96296864,2.65216708 5.53908457,1.31225953 7.55555556,0 L8,0.4743083 C6.69135148,1.64427462 5.77366519,2.58300042 5.24691358,3.29051383 C4.72016198,3.99802725 4.16461198,5.16995229 3.58024691,6.80632411 C3.22633568,7.79447134 2.93621512,8.91106097 2.70987654,10.1561265 C2.48353796,11.401192 2.37037037,12.7628385 2.37037037,14.2411067 C2.37037037,15.5770818 2.51645944,16.7272679 2.80864198,17.6916996 C3.10082451,18.6561313 3.55966765,19.6363587 4.18518519,20.6324111 L3.60493827,21 Z M14.52891,8.49693252 C15.4654075,7.22903252 16.2191125,6.33947086 16.7900474,5.82822086 C17.3609823,5.31697086 17.9175328,5.06134969 18.4597156,5.06134969 C19.108692,5.06134969 19.5563969,5.28220638 19.8028436,5.72392638 C19.9342819,5.95296638 20,6.23108221 20,6.55828221 C20,6.89366221 19.8644563,7.20040761 19.5933649,7.47852761 C19.3222735,7.75664761 18.9936828,7.89570552 18.6075829,7.89570552 C18.3693511,7.89570552 18.1003175,7.80572687 17.8004739,7.62576687 C17.5006304,7.44580687 17.2726706,7.35582822 17.1165877,7.35582822 C16.8126367,7.35582822 16.5230661,7.51124589 16.2478673,7.82208589 C15.9726685,8.13292589 15.4982656,8.79140601 14.8246445,9.79754601 C14.8246445,9.79754601 15.539336,13.3558265 15.6379147,13.6993865 C15.7693529,14.1738265 15.9007892,14.5173813 16.0322275,14.7300613 C16.1636657,14.9427413 16.3567128,15.0490798 16.6113744,15.0490798 C16.8413914,15.0490798 17.1206935,14.8813923 17.4492891,14.5460123 C17.6300167,14.3660523 17.9052114,14.0347672 18.2748815,13.5521472 L18.7924171,13.9079755 C18.3570278,14.6359955 17.7922626,15.3271951 17.0981043,15.9815951 C16.403946,16.6359951 15.7241739,16.9631902 15.0587678,16.9631902 C14.5001552,16.9631902 14.0401282,16.7341536 13.678673,16.2760736 C13.4733007,16.0306736 12.9413909,14.6584895 12.7976303,14.0981595 C12.6538697,13.5378295 12.5614536,13.1922297 12.5203791,13.0613497 L12.3478673,13.3558282 C11.5345931,14.7464282 10.9390224,15.6503047 10.5611374,16.0674847 C9.99430996,16.6891647 9.33712854,17 8.58957346,17 C8.16239913,17 7.79068089,16.8548072 7.47440758,16.5644172 C7.15813428,16.2740272 7,15.9161575 7,15.4907975 C7,15.1390575 7.11706044,14.8139074 7.35118483,14.5153374 C7.58530923,14.2167674 7.91184625,14.0674847 8.33080569,14.0674847 C8.58546731,14.0674847 8.89968218,14.1574633 9.27345972,14.3374233 C9.64723726,14.5173833 9.8916266,14.607362 10.0066351,14.607362 C10.2612967,14.607362 10.4810417,14.4948887 10.6658768,14.2699387 C10.8507118,14.0449887 11.2142153,13.486712 11.7563981,12.595092 L12.2492891,11.7852761 C12.1671402,11.4417161 12.0788314,11.0204524 11.9843602,10.5214724 C11.8898889,10.0224924 11.4976303,7.94478528 11.4976303,7.94478528 C11.3579772,7.19222528 11.1361785,6.6973427 10.8322275,6.4601227 C10.6597148,6.3210627 10.3763053,6.25153374 9.98199052,6.25153374 C9.94091607,6.25153374 9.84233885,6.25766865 9.68625592,6.26993865 C9.530173,6.28220865 9.37409241,6.29652344 9.21800948,6.31288344 L9.21800948,5.63803681 C9.95734967,5.54805681 10.768558,5.43353853 11.6516588,5.29447853 C12.5347595,5.15541853 13.1241691,5.05726 13.4199052,5 C13.6663519,5.3272 13.8696674,5.72392405 14.0298578,6.19018405 C14.1900482,6.65644405 14.52891,8.49693252 14.52891,8.49693252 Z M23.4018547,0 C24.8032012,1.74735603 25.7532175,3.39630017 26.251932,4.94688187 C26.7506465,6.49746357 27,7.99292603 27,9.43331411 C27,11.1885411 26.6847018,12.701713 26.0540958,13.9728752 C25.4234899,15.2440373 24.6342139,16.3990853 23.6862442,17.4380537 C22.8948956,18.3038608 21.9222108,19.1637517 20.7681607,20.0177523 C19.6141107,20.8717529 19.1731053,21.1688777 19.4451314,20.9091355 L19,20.4250731 C20.2447254,19.3310078 21.0937638,18.4888264 21.5471406,17.8985034 C22.2313275,17.0012124 22.8578024,15.7458111 23.4265842,14.1322616 C23.8634746,12.9043898 24.1725905,11.6706332 24.3539413,10.430955 C24.535292,9.1912767 24.625966,7.95752017 24.625966,6.72964837 C24.625966,5.5490024 24.4981981,4.46872754 24.2426584,3.48879139 C23.9871188,2.50885524 23.5090195,1.46793466 22.8083462,0.36599842 L23.4018547,0 Z"/>
  </g>
 </g>
</svg>
